<svg width="34" height="33" viewBox="0 0 34 33" fill="none" xmlns="http://www.w3.org/2000/svg">
<path fill-rule="evenodd" clip-rule="evenodd" d="M17.3215 20.0321L17.321 11.8403L28.1664 8.9336C28.6065 8.81565 28.8676 8.36327 28.7497 7.92318C28.6317 7.48309 28.1793 7.22194 27.7392 7.33989L17.3208 10.1322L17.3205 5.91096C17.3205 5.53715 17.5711 5.21053 17.9316 5.11403L30.7621 1.68034C31.158 1.57421 31.3739 1.73225 31.3739 2.09119V26.3648C31.3739 26.8976 30.8897 27.5115 30.3352 27.6602L16.6996 31.31C16.5155 31.3616 16.4694 31.3612 16.307 31.3143L2.6873 27.6602C2.13266 27.5115 1.64851 26.8976 1.64851 26.3648V2.09119C1.64851 1.73225 1.8644 1.57421 2.25987 1.68024L12.9189 4.54133C13.3589 4.65946 13.8114 4.39847 13.9295 3.9584C14.0477 3.51834 13.7867 3.06583 13.3466 2.94771L2.6874 0.0865536C1.26108 -0.295867 -0.00152588 0.628417 -0.00152588 2.09119V26.3648C-0.00152588 27.6536 0.992683 28.9142 2.25987 29.2539L15.8643 32.9038C16.3043 33.0311 16.6635 33.0339 17.136 32.9012L30.7622 29.254C32.0297 28.9142 33.0239 27.6536 33.0239 26.3648V2.09119C33.0239 0.628417 31.7613 -0.295867 30.3352 0.0864927L17.5049 3.52011C16.4228 3.80984 15.6705 4.79031 15.6705 5.91102L15.6708 10.5744L14.5957 10.8626C14.1556 10.9805 13.8945 11.4329 14.0124 11.873C14.1304 12.3131 14.5827 12.5742 15.0228 12.4563L15.6709 12.2826L15.6715 20.4744L14.5957 20.7627C14.1556 20.8807 13.8945 21.333 14.0124 21.7731C14.1304 22.2132 14.5827 22.4744 15.0228 22.3564L15.6717 22.1825L15.6721 28.8086C15.6722 29.2642 16.0416 29.6336 16.4972 29.6335C16.9529 29.6335 17.3222 29.2641 17.3222 28.8085L17.3217 21.7403L28.1664 18.8338C28.6065 18.7158 28.8676 18.2634 28.7497 17.8233C28.6317 17.3832 28.1793 17.1221 27.7392 17.24L17.3215 20.0321ZM20.064 16.0212L28.2313 13.8845C28.6721 13.7691 28.936 13.3183 28.8206 12.8775C28.7053 12.4368 28.2545 12.1729 27.8137 12.2882L19.6464 14.4249C19.2057 14.5402 18.9418 14.9911 19.0571 15.4318C19.1724 15.8726 19.6233 16.1365 20.064 16.0212ZM22.4168 25.325L20.0276 25.9652C19.5875 26.0832 19.1352 25.822 19.0173 25.3819C18.8993 24.9418 19.1605 24.4894 19.6006 24.3715L21.9897 23.7313C22.4298 23.6134 22.8822 23.8746 23.0001 24.3147C23.118 24.7548 22.8569 25.2071 22.4168 25.325Z" fill="white"/>
</svg>
