<svg width="33" height="29" viewBox="0 0 33 29" fill="none" xmlns="http://www.w3.org/2000/svg">
<path fill-rule="evenodd" clip-rule="evenodd" d="M1.65005 23.9491V2.30182C1.65005 1.94129 1.94174 1.65005 2.30347 1.65005H13.2251C13.7991 1.65005 14.1438 1.9504 14.4813 2.65876C14.5495 2.80189 14.7106 3.19442 14.8098 3.43599L14.8098 3.43603L14.8099 3.43629C14.8509 3.53607 14.8812 3.61004 14.8901 3.62994C15.2516 4.44152 16.0755 4.94684 16.9691 4.94684H28.8676C29.3232 4.94684 29.6926 4.57747 29.6926 4.12182C29.6926 3.66617 29.3232 3.29679 28.8676 3.29679H16.9691C16.7112 3.29679 16.4867 3.15911 16.3977 2.9594C16.3959 2.9554 16.3853 2.92932 16.3683 2.88766C16.2892 2.69368 16.0723 2.1619 15.9709 1.94907C15.3884 0.726413 14.5547 0 13.2251 0H2.30347C1.03101 0 0 1.02942 0 2.30182V23.9491V23.9636C0 23.9703 7.80821e-05 23.9769 0.000233412 23.9835C0.0186048 25.3345 1.11887 26.4242 2.47507 26.4242H3.3008V28.0599C3.3008 28.5155 3.67018 28.8849 4.12582 28.8849C4.58147 28.8849 4.95085 28.5155 4.95085 28.0599V9.14702C4.95085 8.69114 5.31974 8.32199 5.77587 8.32199H30.5249C30.9801 8.32199 31.35 8.69184 31.35 9.14702V23.9265C31.35 24.3826 30.9808 24.7515 30.5249 24.7515H7.39457C6.93892 24.7515 6.56954 25.1209 6.56954 25.5765C6.56954 26.0322 6.93892 26.4016 7.39457 26.4016H30.5249C31.8918 26.4016 33 25.2942 33 23.9265V9.14702C33 7.78054 31.8914 6.67195 30.5249 6.67195H5.77587C4.40819 6.67195 3.3008 7.7801 3.3008 9.14702V24.7741H2.47507C2.01894 24.7741 1.65005 24.405 1.65005 23.9491ZM1.65005 23.9491C1.65005 23.4935 1.28067 23.1241 0.825024 23.1241C0.369376 23.1241 0 23.4935 0 23.9491C0 23.9606 7.79629e-05 23.972 0.000233412 23.9835C0.0107598 24.4299 0.376001 24.7887 0.825024 24.7887C1.28067 24.7887 1.65005 24.4193 1.65005 23.9636V23.9491ZM3.3008 24.7741V26.4242H4.11522C4.57087 26.4242 4.94024 26.0548 4.94024 25.5991C4.94024 25.1435 4.57087 24.7741 4.11522 24.7741H3.3008Z" fill="white"/>
</svg>
