<svg width="576" height="121" viewBox="0 0 576 121" fill="none" xmlns="http://www.w3.org/2000/svg">
<path d="M140.394 63.0657V74.5476H108.666V63.0657H140.394Z" fill="white"/>
<path d="M214.381 58.3778H199.502C199.23 56.4529 198.675 54.743 197.837 53.2484C196.999 51.731 195.924 50.4402 194.61 49.3758C193.297 48.3114 191.779 47.4961 190.058 46.9299C188.36 46.3638 186.514 46.0807 184.521 46.0807C180.92 46.0807 177.784 46.9752 175.111 48.7643C172.439 50.5308 170.367 53.1125 168.895 56.5095C167.423 59.8838 166.687 63.9829 166.687 68.8066C166.687 73.7662 167.423 77.9332 168.895 81.3076C170.389 84.6819 172.473 87.2297 175.145 88.9508C177.818 90.672 180.909 91.5325 184.419 91.5325C186.389 91.5325 188.212 91.2721 189.888 90.7512C191.587 90.2304 193.093 89.4717 194.406 88.4752C195.72 87.4561 196.807 86.2219 197.667 84.7725C198.551 83.3231 199.162 81.6699 199.502 79.8129L214.381 79.8808C213.996 83.074 213.033 86.154 211.493 89.1207C209.976 92.0647 207.926 94.7031 205.345 97.0357C202.786 99.3456 199.728 101.18 196.173 102.539C192.64 103.875 188.643 104.543 184.181 104.543C177.976 104.543 172.428 103.139 167.536 100.331C162.667 97.5226 158.817 93.4575 155.986 88.1355C153.178 82.8136 151.774 76.3706 151.774 68.8066C151.774 61.22 153.201 54.7657 156.054 49.4437C158.908 44.1218 162.78 40.068 167.672 37.2825C172.564 34.4743 178.067 33.0702 184.181 33.0702C188.212 33.0702 191.949 33.6364 195.391 34.7687C198.856 35.901 201.925 37.5542 204.597 39.7283C207.27 41.8797 209.444 44.5181 211.12 47.6433C212.818 50.7686 213.905 54.3467 214.381 58.3778Z" fill="white"/>
<path d="M248.232 104.611C242.955 104.611 238.392 103.49 234.542 101.248C230.715 98.9833 227.759 95.8354 225.676 91.8043C223.592 87.7505 222.55 83.0514 222.55 77.7068C222.55 72.3169 223.592 67.6063 225.676 63.5752C227.759 59.5215 230.715 56.3736 234.542 54.1316C238.392 51.8669 242.955 50.7346 248.232 50.7346C253.508 50.7346 258.06 51.8669 261.888 54.1316C265.738 56.3736 268.704 59.5215 270.788 63.5752C272.871 67.6063 273.913 72.3169 273.913 77.7068C273.913 83.0514 272.871 87.7505 270.788 91.8043C268.704 95.8354 265.738 98.9833 261.888 101.248C258.06 103.49 253.508 104.611 248.232 104.611ZM248.3 93.4009C250.7 93.4009 252.704 92.7215 254.312 91.3627C255.92 89.9812 257.132 88.1016 257.947 85.7237C258.785 83.3458 259.204 80.6395 259.204 77.6048C259.204 74.5702 258.785 71.8639 257.947 69.486C257.132 67.1081 255.92 65.2284 254.312 63.847C252.704 62.4656 250.7 61.7748 248.3 61.7748C245.876 61.7748 243.838 62.4656 242.185 63.847C240.554 65.2284 239.32 67.1081 238.482 69.486C237.667 71.8639 237.259 74.5702 237.259 77.6048C237.259 80.6395 237.667 83.3458 238.482 85.7237C239.32 88.1016 240.554 89.9812 242.185 91.3627C243.838 92.7215 245.876 93.4009 248.3 93.4009Z" fill="white"/>
<path d="M297.794 34.0214V103.592H283.323V34.0214H297.794Z" fill="white"/>
<path d="M323.857 34.0214V103.592H309.386V34.0214H323.857Z" fill="white"/>
<path d="M359.229 104.611C353.861 104.611 349.241 103.524 345.369 101.35C341.519 99.1531 338.552 96.0505 336.469 92.0421C334.385 88.011 333.344 83.2439 333.344 77.7407C333.344 72.3735 334.385 67.663 336.469 63.6092C338.552 59.5555 341.485 56.3962 345.267 54.1316C349.072 51.8669 353.533 50.7346 358.651 50.7346C362.093 50.7346 365.298 51.2894 368.265 52.3991C371.254 53.4862 373.858 55.128 376.078 57.3248C378.32 59.5215 380.064 62.2844 381.309 65.6134C382.555 68.9199 383.177 72.7924 383.177 77.2312V81.2057H339.118V72.2376H369.556C369.556 70.1541 369.103 68.3084 368.197 66.7005C367.291 65.0926 366.034 63.8357 364.426 62.9298C362.841 62.0013 360.995 61.537 358.889 61.537C356.692 61.537 354.745 62.0466 353.046 63.0657C351.37 64.0621 350.057 65.4096 349.106 67.1081C348.154 68.784 347.668 70.6523 347.645 72.7132V81.2396C347.645 83.8214 348.12 86.0521 349.072 87.9317C350.045 89.8114 351.416 91.2608 353.182 92.2799C354.948 93.299 357.043 93.8085 359.466 93.8085C361.074 93.8085 362.546 93.5821 363.883 93.1291C365.219 92.6762 366.362 91.9968 367.314 91.0909C368.265 90.1851 368.989 89.0754 369.488 87.7619L382.872 88.6451C382.192 91.8609 380.8 94.6691 378.693 97.0696C376.61 99.4475 373.915 101.305 370.609 102.641C367.325 103.954 363.532 104.611 359.229 104.611Z" fill="white"/>
<path d="M416.196 104.611C410.852 104.611 406.254 103.479 402.405 101.214C398.577 98.9267 395.633 95.7561 393.572 91.7024C391.534 87.6486 390.515 82.9834 390.515 77.7068C390.515 72.3621 391.545 67.6743 393.606 63.6432C395.69 59.5894 398.645 56.4302 402.472 54.1656C406.3 51.8782 410.852 50.7346 416.128 50.7346C420.68 50.7346 424.666 51.5612 428.086 53.2144C431.505 54.8676 434.212 57.1889 436.205 60.1782C438.198 63.1676 439.296 66.6778 439.5 70.7089H425.844C425.459 68.1046 424.44 66.0098 422.786 64.4245C421.156 62.8166 419.016 62.0126 416.366 62.0126C414.124 62.0126 412.165 62.6241 410.489 63.847C408.836 65.0473 407.545 66.8024 406.617 69.1124C405.688 71.4223 405.224 74.2192 405.224 77.5029C405.224 80.832 405.677 83.6628 406.583 85.9954C407.511 88.328 408.814 90.1058 410.489 91.3287C412.165 92.5516 414.124 93.1631 416.366 93.1631C418.019 93.1631 419.503 92.8234 420.816 92.144C422.152 91.4646 423.251 90.4795 424.111 89.1886C424.995 87.8751 425.572 86.3012 425.844 84.4668H439.5C439.273 88.4526 438.186 91.9628 436.239 94.9975C434.314 98.0095 431.653 100.365 428.256 102.063C424.859 103.762 420.839 104.611 416.196 104.611Z" fill="white"/>
<path d="M476.519 51.414V62.2844H445.096V51.414H476.519ZM452.23 38.913H466.701V87.5581C466.701 88.8942 466.905 89.936 467.313 90.6833C467.72 91.408 468.286 91.9175 469.011 92.2119C469.758 92.5063 470.619 92.6536 471.593 92.6536C472.272 92.6536 472.952 92.5969 473.631 92.4837C474.31 92.3478 474.831 92.2459 475.194 92.178L477.47 102.946C476.745 103.173 475.726 103.433 474.412 103.728C473.099 104.045 471.502 104.237 469.623 104.305C466.135 104.441 463.078 103.977 460.451 102.912C457.846 101.848 455.819 100.195 454.37 97.9529C452.921 95.7108 452.207 92.88 452.23 89.4604V38.913Z" fill="white"/>
<path d="M508.96 104.611C503.683 104.611 499.12 103.49 495.27 101.248C491.443 98.9833 488.487 95.8354 486.404 91.8043C484.32 87.7505 483.279 83.0514 483.279 77.7068C483.279 72.3169 484.32 67.6063 486.404 63.5752C488.487 59.5215 491.443 56.3736 495.27 54.1316C499.12 51.8669 503.683 50.7346 508.96 50.7346C514.237 50.7346 518.788 51.8669 522.616 54.1316C526.466 56.3736 529.432 59.5215 531.516 63.5752C533.599 67.6063 534.641 72.3169 534.641 77.7068C534.641 83.0514 533.599 87.7505 531.516 91.8043C529.432 95.8354 526.466 98.9833 522.616 101.248C518.788 103.49 514.237 104.611 508.96 104.611ZM509.028 93.4009C511.428 93.4009 513.433 92.7215 515.04 91.3627C516.648 89.9812 517.86 88.1016 518.675 85.7237C519.513 83.3458 519.932 80.6395 519.932 77.6048C519.932 74.5702 519.513 71.8639 518.675 69.486C517.86 67.1081 516.648 65.2284 515.04 63.847C513.433 62.4656 511.428 61.7748 509.028 61.7748C506.605 61.7748 504.566 62.4656 502.913 63.847C501.283 65.2284 500.048 67.1081 499.21 69.486C498.395 71.8639 497.988 74.5702 497.988 77.6048C497.988 80.6395 498.395 83.3458 499.21 85.7237C500.048 88.1016 501.283 89.9812 502.913 91.3627C504.566 92.7215 506.605 93.4009 509.028 93.4009Z" fill="white"/>
<path d="M544.051 103.592V51.414H558.08V60.5179H558.624C559.575 57.2795 561.172 54.8336 563.414 53.1804C565.656 51.5046 568.237 50.6666 571.159 50.6666C571.884 50.6666 572.665 50.7119 573.503 50.8025C574.341 50.8931 575.077 51.0177 575.711 51.1762V64.0168C575.031 63.813 574.092 63.6319 572.891 63.4733C571.691 63.3148 570.593 63.2355 569.596 63.2355C567.467 63.2355 565.565 63.6998 563.889 64.6283C562.236 65.5342 560.923 66.8024 559.949 68.4329C558.998 70.0635 558.522 71.9432 558.522 74.072V103.592H544.051Z" fill="white"/>
<path d="M14.3281 87.3183C14.2586 87.1068 14.1926 86.8939 14.1301 86.6799C13.3418 83.9789 13.1299 81.1423 13.5082 78.3541C13.6015 76.76 13.8775 75.1862 14.3281 73.6628L14.3281 87.3183Z" fill="black"/>
<path d="M30.812 43.8871C31.0761 43.6426 31.3474 43.4044 31.6255 43.173C30.9486 42.5914 30.3765 41.8955 29.9403 41.1184C27.8101 40.2324 25.9175 38.8587 24.4147 37.108C22.912 35.3573 21.8411 33.2784 21.2881 31.0384C18.8543 28.7738 17.3612 25.6769 17.105 22.3624C17.0311 21.0195 17.2847 19.6788 17.8439 18.4557C16.8326 17.4906 16.1145 16.2596 15.7721 14.9043C15.4297 13.5491 15.4769 12.1246 15.9084 10.795C17.3552 6.60716 22.4179 3.88754 29.2205 3.60152C31.2821 1.85098 33.929 0.944244 36.6309 1.06305C37.9805 1.06923 39.3246 1.23484 40.6353 1.55644C41.8708 1.00207 43.2143 0.730106 44.5681 0.760339C47.203 0.788758 49.7866 1.49291 52.0715 2.80542C52.3718 2.7649 52.6745 2.74583 52.9772 2.74583C56.1189 3.06 59.0807 4.35985 61.4388 6.45938C63.1104 7.81144 64.6054 9.36816 65.8889 11.093C67.1715 9.36826 68.6658 7.81153 70.3366 6.45938C72.6951 4.35911 75.6579 3.05919 78.8005 2.74583C79.1034 2.74578 79.406 2.76569 79.7062 2.80542C81.9911 1.49271 84.5747 0.788546 87.2096 0.76034C88.5634 0.730026 89.907 1.00199 91.1425 1.55644C92.4516 1.23521 93.7941 1.0696 95.1421 1.06305C97.8448 0.943398 100.493 1.8502 102.555 3.60152C109.357 3.88993 114.42 6.60716 115.865 10.7927C116.297 12.1221 116.345 13.5468 116.004 14.9025C115.662 16.2582 114.945 17.4899 113.934 18.4557C114.493 19.6781 114.746 21.0179 114.673 22.36C114.416 25.6744 112.923 28.7713 110.49 31.0361C109.937 33.2764 108.866 35.3559 107.364 37.107C105.861 38.8581 103.968 40.2321 101.837 41.1184C101.399 41.8955 100.827 42.5915 100.15 43.173C100.428 43.4045 100.699 43.6426 100.964 43.8872L30.812 43.8871Z" fill="black"/>
<path d="M31.3941 18.4446L54.648 14.3365L100.963 43.3278C100.169 43.486 99.3598 43.579 98.5449 43.6045C97.859 44.1753 97.0771 44.6229 96.2378 44.9262C98.8911 49.625 99.5832 55.1807 98.1638 60.3867C98.9568 62.7884 99.2423 65.3288 99.0025 67.8465C100.385 70.3219 101.247 73.0534 101.537 75.8736C101.827 78.6939 101.538 81.5436 100.688 84.2483C100.053 86.9892 98.8501 89.5667 97.1546 91.812C95.4591 94.0574 93.3106 95.9214 90.8485 97.2831C89.1589 99.982 86.9086 102.286 84.2501 104.038C82.128 108.455 78.6233 112.06 74.2677 114.306C69.8706 116.661 64.833 117.542 59.8974 116.819C56.2208 118.317 52.2876 119.079 48.3187 119.064C42.8931 121.245 36.8451 121.303 31.3783 119.227C25.9115 117.152 21.4266 113.094 18.8162 107.861C15.8361 105.238 13.3993 102.056 11.6437 98.4956C7.47192 95.7607 4.28887 91.758 2.56342 87.0775C0.79622 82.5068 0.567785 77.4843 1.91241 72.7718C1.08844 69.6978 0.933573 66.48 1.46255 63.3409C0.524434 60.6883 0.154267 57.8679 0.375988 55.0629C0.597854 52.2579 1.40679 49.5308 2.75025 47.0586C3.9098 44.4714 5.58533 42.1482 7.67408 40.2311C9.76284 38.3142 12.2209 36.8436 14.8977 35.9097C16.3895 33.8672 18.2892 32.1567 20.4765 30.8868C22.8696 26.0508 27.0741 22.3545 32.1766 20.6005C31.8091 19.9247 31.5446 19.197 31.3941 18.4446Z" fill="black"/>
<path d="M85.1508 59.0403C88.9572 63.66 91.55 61.6462 91.5696 55.4173C91.3964 52.9787 90.6881 50.6081 89.4953 48.4741C88.3025 46.3401 86.6543 44.4949 84.6678 43.0698C79.2979 39.8349 76.1827 40.8676 78.1944 46.6083C79.692 51.1611 82.054 55.3823 85.1508 59.0403Z" fill="#CD2355"/>
<path d="M58.6746 47.1993C67.3404 50.4899 76.857 49.4252 72.0988 41.0072C70.1919 37.7606 67.2337 35.2623 63.7137 33.9256C60.1937 32.589 56.3229 32.4941 52.7416 33.6568C43.5975 36.7956 50.0065 43.9078 58.6746 47.1993Z" fill="#CD2355"/>
<path d="M8.71722 50.8846C7.64832 53.0982 7.08299 55.521 7.06183 57.979C7.23255 62.6994 9.12531 64.879 12.4633 61.8225C16.4549 57.8438 18.9767 52.6262 19.6108 47.0285C19.9912 42.938 17.4715 41.7849 13.2439 45.1768C11.332 46.7218 9.78611 48.6711 8.71722 50.8846Z" fill="#CD2355"/>
<path d="M8.70118 85.2269C9.84829 88.4968 11.9931 91.3241 14.8329 93.3098C35.0372 105.352 17.9216 53.0211 8.43948 75.0847C7.46254 78.4094 7.55408 81.957 8.70118 85.2269Z" fill="#CD2355"/>
<path d="M33.4876 113.525C36.7342 114.758 40.2863 114.939 43.6414 114.042C50.4195 112.373 46.6394 106.053 37.6259 102.63C28.6125 99.2077 21.5876 101.425 25.5498 107.172C27.4641 110.07 30.2409 112.292 33.4876 113.525Z" fill="#CD2355"/>
<path d="M77.7349 101.398C85.2918 78.6035 37.7512 106.383 60.8605 110.788C64.3025 111.187 67.7807 110.495 70.8087 108.811C73.8367 107.126 76.2594 104.533 77.7349 101.398Z" fill="#CD2355"/>
<path d="M83.5325 88.8095C83.9982 93.3104 86.8628 92.9373 90.1237 89.52C91.7393 87.6674 92.9224 85.4792 93.5921 83.1141C94.2619 80.749 94.3995 78.2649 93.995 75.8403C93.0873 70.4959 90.4356 69.6904 88.006 73.0001C84.7639 77.6096 83.1864 83.1847 83.5325 88.8095Z" fill="#CD2355"/>
<path d="M78.8992 8.0362C78.9832 8.01046 79.0723 8.00578 79.1586 8.02257C79.2449 8.03936 79.3257 8.0771 79.394 8.13247C79.4623 8.18785 79.5159 8.25915 79.5501 8.34011C79.5844 8.42107 79.5982 8.50921 79.5904 8.59677C79.4456 10.2011 80.4121 9.98235 80.6386 9.69488C81.4513 8.45801 82.5763 7.4577 83.8997 6.79511C85.2231 6.13253 86.698 5.83116 88.1752 5.9215C88.2709 5.92963 88.3627 5.96331 88.4409 6.01902C88.5191 6.07473 88.581 6.15042 88.6199 6.23819C88.6589 6.32596 88.6736 6.42258 88.6625 6.51797C88.6514 6.61336 88.6148 6.70401 88.5567 6.78046C87.6271 8.20965 88.6564 8.46181 89.0334 8.20281C92.8798 5.70692 96.5879 5.63775 98.0302 6.6363C98.0947 6.68318 98.1479 6.74385 98.186 6.8139C98.2242 6.88394 98.2462 6.96161 98.2505 7.04123C98.2548 7.12086 98.2413 7.20044 98.2109 7.27418C98.1806 7.34792 98.1342 7.41398 98.0751 7.46753C96.6561 8.71657 97.4719 9.3132 97.9787 9.11878C99.8468 8.51254 101.823 8.31114 103.775 8.528C105.727 8.74485 107.61 9.37497 109.299 10.3764C109.36 10.4252 109.409 10.4863 109.443 10.5557C109.478 10.6251 109.497 10.7011 109.5 10.7786C109.503 10.8561 109.489 10.9333 109.459 11.0049C109.429 11.0765 109.384 11.1409 109.327 11.1936C108.211 12.0772 107.282 13.1745 106.595 14.4213C105.907 15.6681 105.476 17.0394 105.325 18.4551C105.233 19.4007 106.8 19.1766 107.458 18.9939C107.535 18.9731 107.616 18.9697 107.694 18.9841C107.773 18.9985 107.848 19.0303 107.912 19.0773C107.977 19.1242 108.031 19.185 108.069 19.2552C108.107 19.3255 108.129 19.4034 108.133 19.4833C108.233 21.7558 106.126 24.2894 102.963 26.4782C102.539 26.7714 102.612 27.4567 103.59 27.4689C103.683 27.4677 103.774 27.4909 103.856 27.5364C103.937 27.5818 104.004 27.6478 104.052 27.7277C104.099 27.8077 104.125 27.8987 104.126 27.9917C104.127 28.0846 104.104 28.1763 104.058 28.2573C102.955 30.3927 101.434 32.411 96.1781 33.8673C96.0689 33.8972 95.9718 33.9607 95.9006 34.0487C95.8293 34.1367 95.7875 34.2448 95.781 34.3579C95.7744 34.4709 95.8035 34.5832 95.8642 34.6788C95.9248 34.7744 96.0139 34.8486 96.1189 34.8909C96.213 34.9152 96.2983 34.9654 96.3652 35.0358C96.432 35.1063 96.4777 35.1941 96.497 35.2893C96.5162 35.3845 96.5083 35.4832 96.474 35.5741C96.4398 35.665 96.3807 35.7444 96.3034 35.8033C91.1193 40.4098 77.7602 38.8501 75.9409 31.2736C75.9235 31.199 75.9223 31.1215 75.9375 31.0463C75.9527 30.9712 75.9839 30.9003 76.029 30.8383C81.5607 23.187 89.1199 17.2331 97.8543 13.6478C97.9537 13.6122 98.0361 13.5403 98.0848 13.4465C98.1336 13.3528 98.1452 13.2441 98.1173 13.1422C98.0894 13.0403 98.024 12.9526 97.9343 12.8968C97.8446 12.841 97.7371 12.821 97.6334 12.841C92.8809 13.6133 88.3305 15.3271 84.2493 17.8818C80.1681 20.4366 76.6383 23.7808 73.8671 27.7182C73.7916 27.8235 73.6808 27.8982 73.5549 27.9287C73.429 27.9593 73.2963 27.9436 73.1809 27.8846C64.5633 23.6162 71.364 10.4722 78.8992 8.0362ZM29.004 29.5103C28.9557 29.4309 28.9293 29.3401 28.9273 29.2471C28.9253 29.1541 28.9478 29.0623 28.9926 28.9808C29.0374 28.8993 29.1029 28.8311 29.1825 28.783C29.262 28.7349 29.3529 28.7086 29.4458 28.7067C30.4226 28.6666 30.473 27.9768 30.0392 27.698C26.8053 25.6161 24.6186 23.1544 24.6378 20.8822C24.6394 20.8023 24.6588 20.7237 24.6946 20.6522C24.7305 20.5807 24.7819 20.5181 24.8451 20.4691C24.9083 20.42 24.9816 20.3857 25.0598 20.3687C25.1379 20.3516 25.2189 20.3523 25.2967 20.3706C25.9621 20.5311 27.5336 20.7027 27.4106 19.7607C27.212 18.3513 26.7345 16.9957 26.0059 15.7729C25.2773 14.5502 24.3124 13.485 23.1673 12.6396C23.1084 12.5887 23.0611 12.5258 23.0287 12.455C22.9963 12.3842 22.9795 12.3073 22.9796 12.2294C22.9797 12.1516 22.9965 12.0746 23.029 12.0039C23.0615 11.9331 23.1089 11.8703 23.1679 11.8195C24.823 10.7621 26.6842 10.0693 28.6278 9.78733C30.5714 9.50532 32.5528 9.64052 34.4401 10.1839C34.9533 10.3637 35.7486 9.73773 34.2886 8.53684C34.2275 8.48514 34.1787 8.4204 34.1458 8.34738C34.113 8.27436 34.0969 8.19491 34.0988 8.11486C34.1006 8.03481 34.1204 7.95619 34.1566 7.88478C34.1928 7.81336 34.2446 7.75096 34.308 7.70216C35.7137 6.65835 39.4221 6.60109 43.3521 8.9669C43.7353 9.21557 44.7556 8.92913 43.7811 7.53179C43.7205 7.45749 43.6809 7.3683 43.6665 7.27352C43.6521 7.17874 43.6633 7.08183 43.6991 6.99287C43.7349 6.90391 43.7938 6.82617 43.8698 6.76773C43.9458 6.70929 44.0361 6.67229 44.1312 6.66059C45.6048 6.52021 47.0893 6.7715 48.4345 7.38904C49.7798 8.00658 50.9381 8.96847 51.7922 10.1774C52.0258 10.4595 52.9991 10.6435 52.8031 9.04244C52.7928 8.95538 52.8039 8.86711 52.8356 8.78537C52.8673 8.70363 52.9186 8.63091 52.9849 8.57358C53.0512 8.51624 53.1306 8.47604 53.2161 8.45649C53.3015 8.43694 53.3905 8.43865 53.4752 8.46145C61.0876 10.6465 68.3217 23.5533 59.8517 28.1076C59.7383 28.1704 59.6062 28.1905 59.4794 28.1642C59.3525 28.1379 59.2393 28.0669 59.1603 27.9642C56.259 24.1223 52.6197 20.8987 48.4558 18.4823C44.2919 16.0659 39.6873 14.5054 34.9122 13.8925C34.8073 13.8746 34.6996 13.8972 34.6108 13.9557C34.5219 14.0142 34.4586 14.1043 34.4337 14.2077C34.4088 14.3111 34.4241 14.4201 34.4765 14.5127C34.5289 14.6053 34.6145 14.6745 34.716 14.7063C43.5651 17.9968 51.3191 23.6937 57.104 31.1548C57.2014 31.2772 57.2374 31.4363 57.2066 31.5894C55.6417 39.2201 42.3422 41.2257 37.0069 36.7951C36.9277 36.7389 36.866 36.6615 36.8287 36.5718C36.7915 36.4821 36.7802 36.3837 36.7963 36.2879C36.8124 36.1921 36.8551 36.1028 36.9195 36.0301C36.984 35.9575 37.0676 35.9045 37.1608 35.8771C37.2644 35.8315 37.3511 35.7546 37.4087 35.6571C37.4662 35.5597 37.4918 35.4466 37.4817 35.3339C37.4717 35.2211 37.4266 35.1144 37.3527 35.0287C37.2788 34.9429 37.1798 34.8825 37.0698 34.856C31.7657 33.5763 30.1809 31.6075 29.004 29.5103Z" fill="#46AF4B"/>
<path d="M31.4175 86.8515V52.0662H45.1414C47.7797 52.0662 50.0274 52.5701 51.8844 53.5779C53.7414 54.5743 55.1568 55.9615 56.1306 57.7392C57.1158 59.5057 57.6083 61.5439 57.6083 63.8538C57.6083 66.1638 57.1101 68.202 56.1137 69.9684C55.1172 71.7348 53.6735 73.1106 51.7825 74.0958C49.9028 75.0809 47.6268 75.5735 44.9545 75.5735H36.2072V69.6797H43.7656C45.181 69.6797 46.3473 69.4362 47.2645 68.9493C48.193 68.4511 48.8837 67.766 49.3366 66.8941C49.8009 66.0109 50.033 64.9975 50.033 63.8538C50.033 62.6988 49.8009 61.6911 49.3366 60.8305C48.8837 59.9586 48.193 59.2848 47.2645 58.8093C46.336 58.3224 45.1583 58.0789 43.7316 58.0789H38.772V86.8515H31.4175Z" fill="white"/>
<path d="M62.2495 86.8515V60.7625H69.4851V86.8515H62.2495ZM65.8843 57.3995C64.8086 57.3995 63.8857 57.0428 63.1157 56.3295C62.3571 55.6048 61.9777 54.7385 61.9777 53.7308C61.9777 52.7343 62.3571 51.8794 63.1157 51.166C63.8857 50.4413 64.8086 50.079 65.8843 50.079C66.96 50.079 67.8772 50.4413 68.6358 51.166C69.4058 51.8794 69.7908 52.7343 69.7908 53.7308C69.7908 54.7385 69.4058 55.6048 68.6358 56.3295C67.8772 57.0428 66.96 57.3995 65.8843 57.3995Z" fill="white"/>
</svg>
