<svg width="33" height="29" viewBox="0 0 33 29" fill="none" xmlns="http://www.w3.org/2000/svg">
<path fill-rule="evenodd" clip-rule="evenodd" d="M5.6484 9.70359C5.6484 8.63987 6.32783 7.73556 7.27611 7.40016V4.02266H2.42484C1.9789 4.02266 1.61656 4.385 1.61656 4.83094V24.2297C1.61656 24.6756 1.9789 25.038 2.42484 25.038H7V13.8083C7 13.3619 7.36188 13 7.80828 13C8.25468 13 8.61656 13.3619 8.61656 13.8083V25.038H12.905C13.3514 25.038 13.7133 25.3999 13.7133 25.8463C13.7133 26.2927 13.3514 26.6545 12.905 26.6545H2.42484C1.0861 26.6545 0 25.5684 0 24.2297V4.83094C0 3.4922 1.0861 2.4061 2.42484 2.4061H7.27611V0.808281C7.27611 0.36188 7.63799 0 8.08439 0C8.53079 0 8.89267 0.36188 8.89267 0.808281V2.4061H16.1672C16.6136 2.4061 16.9755 2.76798 16.9755 3.21438L16.9752 3.23607L16.9755 3.25626V17.0513C17.9317 17.3831 18.6181 18.2918 18.6181 19.3611C18.6181 20.4303 17.9317 21.3381 16.9755 21.6694V25.038H29.9064C30.3523 25.038 30.7146 24.6756 30.7146 24.2297V4.83094C30.7146 4.385 30.3523 4.02266 29.9064 4.02266H19.4003C18.9539 4.02266 18.592 3.66078 18.592 3.21438C18.592 2.76798 18.9539 2.4061 19.4003 2.4061H23.4417V0.822835C23.4417 0.376433 23.8036 0.0145534 24.25 0.0145534C24.6964 0.0145534 25.0583 0.376433 25.0583 0.822835V2.4061H29.9064C31.2451 2.4061 32.3312 3.4922 32.3312 4.83094V24.2297C32.3312 25.5684 31.2451 26.6545 29.9064 26.6545H16.9755V28.1917C16.9755 28.6381 16.6136 29 16.1672 29C15.7208 29 15.3589 28.6381 15.3589 28.1917V21.6645C14.4106 21.3291 13.7312 20.4248 13.7312 19.3611C13.7312 18.2973 14.4107 17.392 15.3589 17.0562V4.02266H8.89267V7.39524C9.84894 7.7266 10.5353 8.63437 10.5353 9.70359C10.5353 11.0536 9.44108 12.1478 8.09102 12.1478C6.74221 12.1478 5.6484 11.0533 5.6484 9.70359ZM8.09105 8.87753C8.54886 8.87753 8.91873 9.24689 8.91873 9.70359C8.91873 10.1608 8.5483 10.5313 8.09105 10.5313C7.63528 10.5313 7.26498 10.1607 7.26498 9.70359C7.26498 9.24701 7.63472 8.87753 8.09105 8.87753ZM23.4417 16.8581C22.4935 16.5223 21.814 15.617 21.814 14.5533C21.814 13.4896 22.4935 12.5852 23.4417 12.2498V6.48889C23.4417 6.04249 23.8036 5.68061 24.25 5.68061C24.6964 5.68061 25.0583 6.04249 25.0583 6.48889V12.2449C26.0146 12.5763 26.7009 13.4841 26.7009 14.5533C26.7009 15.6225 26.0145 16.5313 25.0583 16.8631V22.5753C25.0583 23.0217 24.6964 23.3836 24.25 23.3836C23.8036 23.3836 23.4417 23.0217 23.4417 22.5753V16.8581ZM25.0843 14.5533C25.0843 14.0966 24.7145 13.7272 24.2566 13.7272C23.8003 13.7272 23.4306 14.0967 23.4306 14.5533C23.4306 15.0104 23.8009 15.381 24.2566 15.381C24.7139 15.381 25.0843 15.0105 25.0843 14.5533ZM17.0015 19.3611C17.0015 18.9038 16.6311 18.5334 16.1738 18.5334C15.7181 18.5334 15.3478 18.9039 15.3478 19.3611C15.3478 19.8176 15.7175 20.1871 16.1738 20.1871C16.6316 20.1871 17.0015 19.8178 17.0015 19.3611Z" fill="white"/>
</svg>
